<svg xmlns="http://www.w3.org/2000/svg" viewBox="0 0 64 64" width="64" height="64">
  <!-- bird — the flyer between the pipes on the RUNNER cover -->
  <rect x="8" y="0" width="40" height="8" fill="#1b1708"/>
  <rect x="0" y="8" width="8" height="8" fill="#1b1708"/>
  <rect x="8" y="8" width="32" height="8" fill="#fff4bd"/>
  <rect x="40" y="8" width="8" height="8" fill="#dcc242"/>
  <rect x="48" y="8" width="8" height="8" fill="#1b1708"/>
  <rect x="0" y="16" width="8" height="8" fill="#1b1708"/>
  <rect x="8" y="16" width="8" height="8" fill="#fff4bd"/>
  <rect x="16" y="16" width="8" height="8" fill="#1b1708"/>
  <rect x="24" y="16" width="8" height="8" fill="#fff4bd"/>
  <rect x="32" y="16" width="16" height="8" fill="#dcc242"/>
  <rect x="48" y="16" width="16" height="8" fill="#e48d37"/>
  <rect x="0" y="24" width="8" height="8" fill="#1b1708"/>
  <rect x="8" y="24" width="16" height="8" fill="#fff4bd"/>
  <rect x="24" y="24" width="16" height="8" fill="#dcc242"/>
  <rect x="40" y="24" width="8" height="8" fill="#9f8c30"/>
  <rect x="48" y="24" width="8" height="8" fill="#e48d37"/>
  <rect x="56" y="24" width="8" height="8" fill="#1b1708"/>
  <rect x="0" y="32" width="8" height="8" fill="#1b1708"/>
  <rect x="8" y="32" width="8" height="8" fill="#dcc242"/>
  <rect x="16" y="32" width="24" height="8" fill="#9f8c30"/>
  <rect x="40" y="32" width="8" height="8" fill="#62571e"/>
  <rect x="48" y="32" width="8" height="8" fill="#1b1708"/>
  <rect x="8" y="40" width="8" height="8" fill="#1b1708"/>
  <rect x="16" y="40" width="8" height="8" fill="#62571e"/>
  <rect x="24" y="40" width="16" height="8" fill="#9f8c30"/>
  <rect x="40" y="40" width="8" height="8" fill="#62571e"/>
  <rect x="48" y="40" width="8" height="8" fill="#1b1708"/>
  <rect x="16" y="48" width="32" height="8" fill="#1b1708"/>
</svg>
