<svg xmlns="http://www.w3.org/2000/svg" viewBox="0 0 640 576" width="640" height="576">
  <!-- Dodger — a lit shaft with the rocks coming down it. -->
  <!-- the shaft, from inside it -->
  <rect x="0" y="0" width="640" height="160" fill="#04060f"/>
  <rect x="0" y="160" width="640" height="160" fill="#080d1c"/>
  <rect x="0" y="320" width="640" height="160" fill="#0c1428"/>
  <rect x="0" y="480" width="640" height="96" fill="#060a16"/>
  <!-- stars, half of them below a Game Boy pixel -->
  <rect x="84" y="120" width="2" height="2" fill="#9fb0e0"/>
  <rect x="104" y="148" width="2" height="2" fill="#7f8fbf"/>
  <rect x="172" y="216" width="4" height="4" fill="#e8f0ff"/>
  <rect x="260" y="88" width="2" height="2" fill="#9fb0e0"/>
  <rect x="280" y="116" width="2" height="2" fill="#7f8fbf"/>
  <rect x="348" y="280" width="4" height="4" fill="#e8f0ff"/>
  <rect x="436" y="152" width="2" height="2" fill="#9fb0e0"/>
  <rect x="456" y="180" width="2" height="2" fill="#7f8fbf"/>
  <rect x="524" y="248" width="4" height="4" fill="#e8f0ff"/>
  <rect x="108" y="368" width="2" height="2" fill="#9fb0e0"/>
  <rect x="128" y="396" width="2" height="2" fill="#7f8fbf"/>
  <rect x="196" y="456" width="4" height="4" fill="#e8f0ff"/>
  <rect x="284" y="400" width="2" height="2" fill="#9fb0e0"/>
  <rect x="304" y="428" width="2" height="2" fill="#7f8fbf"/>
  <rect x="372" y="504" width="4" height="4" fill="#e8f0ff"/>
  <rect x="460" y="352" width="2" height="2" fill="#9fb0e0"/>
  <rect x="480" y="380" width="2" height="2" fill="#7f8fbf"/>
  <rect x="548" y="432" width="4" height="4" fill="#e8f0ff"/>
  <rect x="140" y="296" width="2" height="2" fill="#9fb0e0"/>
  <rect x="160" y="324" width="2" height="2" fill="#7f8fbf"/>
  <rect x="308" y="184" width="4" height="4" fill="#e8f0ff"/>
  <rect x="476" y="480" width="2" height="2" fill="#9fb0e0"/>
  <rect x="496" y="508" width="2" height="2" fill="#7f8fbf"/>
  <rect x="228" y="528" width="4" height="4" fill="#e8f0ff"/>
  <!-- hazard stripes down both walls -->
  <rect x="0" y="96" width="32" height="32" fill="#ffd23f"/>
  <rect x="0" y="128" width="32" height="32" fill="#231b06"/>
  <rect x="608" y="96" width="32" height="32" fill="#231b06"/>
  <rect x="608" y="128" width="32" height="32" fill="#ffd23f"/>
  <rect x="0" y="96" width="32" height="2" fill="#fff3b0"/>
  <rect x="608" y="128" width="32" height="2" fill="#fff3b0"/>
  <rect x="0" y="160" width="32" height="32" fill="#ffd23f"/>
  <rect x="0" y="192" width="32" height="32" fill="#231b06"/>
  <rect x="608" y="160" width="32" height="32" fill="#231b06"/>
  <rect x="608" y="192" width="32" height="32" fill="#ffd23f"/>
  <rect x="0" y="160" width="32" height="2" fill="#fff3b0"/>
  <rect x="608" y="192" width="32" height="2" fill="#fff3b0"/>
  <rect x="0" y="224" width="32" height="32" fill="#ffd23f"/>
  <rect x="0" y="256" width="32" height="32" fill="#231b06"/>
  <rect x="608" y="224" width="32" height="32" fill="#231b06"/>
  <rect x="608" y="256" width="32" height="32" fill="#ffd23f"/>
  <rect x="0" y="224" width="32" height="2" fill="#fff3b0"/>
  <rect x="608" y="256" width="32" height="2" fill="#fff3b0"/>
  <rect x="0" y="288" width="32" height="32" fill="#ffd23f"/>
  <rect x="0" y="320" width="32" height="32" fill="#231b06"/>
  <rect x="608" y="288" width="32" height="32" fill="#231b06"/>
  <rect x="608" y="320" width="32" height="32" fill="#ffd23f"/>
  <rect x="0" y="288" width="32" height="2" fill="#fff3b0"/>
  <rect x="608" y="320" width="32" height="2" fill="#fff3b0"/>
  <rect x="0" y="352" width="32" height="32" fill="#ffd23f"/>
  <rect x="0" y="384" width="32" height="32" fill="#231b06"/>
  <rect x="608" y="352" width="32" height="32" fill="#231b06"/>
  <rect x="608" y="384" width="32" height="32" fill="#ffd23f"/>
  <rect x="0" y="352" width="32" height="2" fill="#fff3b0"/>
  <rect x="608" y="384" width="32" height="2" fill="#fff3b0"/>
  <rect x="0" y="416" width="32" height="32" fill="#ffd23f"/>
  <rect x="0" y="448" width="32" height="32" fill="#231b06"/>
  <rect x="608" y="416" width="32" height="32" fill="#231b06"/>
  <rect x="608" y="448" width="32" height="32" fill="#ffd23f"/>
  <rect x="0" y="416" width="32" height="2" fill="#fff3b0"/>
  <rect x="608" y="448" width="32" height="2" fill="#fff3b0"/>
  <rect x="0" y="480" width="32" height="32" fill="#ffd23f"/>
  <rect x="0" y="512" width="32" height="32" fill="#231b06"/>
  <rect x="608" y="480" width="32" height="32" fill="#231b06"/>
  <rect x="608" y="512" width="32" height="32" fill="#ffd23f"/>
  <rect x="0" y="480" width="32" height="2" fill="#fff3b0"/>
  <rect x="608" y="512" width="32" height="2" fill="#fff3b0"/>
  <rect x="0" y="544" width="32" height="32" fill="#ffd23f"/>
  <rect x="0" y="576" width="32" height="32" fill="#231b06"/>
  <rect x="608" y="544" width="32" height="32" fill="#231b06"/>
  <rect x="608" y="576" width="32" height="32" fill="#ffd23f"/>
  <rect x="0" y="544" width="32" height="2" fill="#fff3b0"/>
  <rect x="608" y="576" width="32" height="2" fill="#fff3b0"/>
  <rect x="32" y="96" width="2" height="576" fill="#8a6a1a"/>
  <rect x="606" y="96" width="2" height="576" fill="#8a6a1a"/>
  <!-- scoreboard, two rows: dodged over lives -->
  <rect x="0" y="32" width="640" height="64" fill="#ffe9a8"/>
  <rect x="0" y="32" width="640" height="2" fill="#8a4a00"/>
  <rect x="0" y="94" width="640" height="2" fill="#8a4a00"/>
  <rect x="0" y="0" width="640" height="32" fill="#04060f"/>
</svg>
