<svg xmlns="http://www.w3.org/2000/svg" viewBox="0 0 64 64" width="64" height="64">
  <!-- fireball — what the flower buys. One in flight per level. -->
  <rect x="16" y="8" width="8" height="8" fill="#8f2107"/>
  <rect x="24" y="8" width="16" height="8" fill="#ff9c2b"/>
  <rect x="40" y="8" width="8" height="8" fill="#8f2107"/>
  <rect x="8" y="16" width="8" height="8" fill="#8f2107"/>
  <rect x="16" y="16" width="8" height="8" fill="#ff9c2b"/>
  <rect x="24" y="16" width="16" height="8" fill="#fff3c4"/>
  <rect x="40" y="16" width="8" height="8" fill="#ff9c2b"/>
  <rect x="48" y="16" width="8" height="8" fill="#8f2107"/>
  <rect x="0" y="24" width="8" height="8" fill="#8f2107"/>
  <rect x="8" y="24" width="8" height="8" fill="#ff9c2b"/>
  <rect x="16" y="24" width="32" height="8" fill="#fff3c4"/>
  <rect x="48" y="24" width="8" height="8" fill="#ff9c2b"/>
  <rect x="56" y="24" width="8" height="8" fill="#8f2107"/>
  <rect x="0" y="32" width="8" height="8" fill="#8f2107"/>
  <rect x="8" y="32" width="8" height="8" fill="#ff9c2b"/>
  <rect x="16" y="32" width="32" height="8" fill="#fff3c4"/>
  <rect x="48" y="32" width="8" height="8" fill="#ff9c2b"/>
  <rect x="56" y="32" width="8" height="8" fill="#8f2107"/>
  <rect x="8" y="40" width="8" height="8" fill="#8f2107"/>
  <rect x="16" y="40" width="8" height="8" fill="#ff9c2b"/>
  <rect x="24" y="40" width="16" height="8" fill="#fff3c4"/>
  <rect x="40" y="40" width="8" height="8" fill="#ff9c2b"/>
  <rect x="48" y="40" width="8" height="8" fill="#8f2107"/>
  <rect x="16" y="48" width="8" height="8" fill="#8f2107"/>
  <rect x="24" y="48" width="16" height="8" fill="#ff9c2b"/>
  <rect x="40" y="48" width="8" height="8" fill="#8f2107"/>
</svg>
