<svg xmlns="http://www.w3.org/2000/svg" viewBox="0 0 64 64" width="64" height="64">
  <!-- flower — the second. It is what makes the fight winnable at range. -->
  <rect x="16" y="0" width="32" height="8" fill="#e8542a"/>
  <rect x="8" y="8" width="8" height="8" fill="#e8542a"/>
  <rect x="16" y="8" width="8" height="8" fill="#ffd23f"/>
  <rect x="24" y="8" width="16" height="8" fill="#fff8dc"/>
  <rect x="40" y="8" width="8" height="8" fill="#ffd23f"/>
  <rect x="48" y="8" width="8" height="8" fill="#e8542a"/>
  <rect x="0" y="16" width="8" height="8" fill="#e8542a"/>
  <rect x="8" y="16" width="8" height="8" fill="#ffd23f"/>
  <rect x="16" y="16" width="8" height="8" fill="#fff8dc"/>
  <rect x="24" y="16" width="16" height="8" fill="#3b1400"/>
  <rect x="40" y="16" width="8" height="8" fill="#fff8dc"/>
  <rect x="48" y="16" width="8" height="8" fill="#ffd23f"/>
  <rect x="56" y="16" width="8" height="8" fill="#e8542a"/>
  <rect x="0" y="24" width="8" height="8" fill="#e8542a"/>
  <rect x="8" y="24" width="8" height="8" fill="#ffd23f"/>
  <rect x="16" y="24" width="8" height="8" fill="#fff8dc"/>
  <rect x="24" y="24" width="16" height="8" fill="#3b1400"/>
  <rect x="40" y="24" width="8" height="8" fill="#fff8dc"/>
  <rect x="48" y="24" width="8" height="8" fill="#ffd23f"/>
  <rect x="56" y="24" width="8" height="8" fill="#e8542a"/>
  <rect x="8" y="32" width="8" height="8" fill="#e8542a"/>
  <rect x="16" y="32" width="8" height="8" fill="#ffd23f"/>
  <rect x="24" y="32" width="16" height="8" fill="#fff8dc"/>
  <rect x="40" y="32" width="8" height="8" fill="#ffd23f"/>
  <rect x="48" y="32" width="8" height="8" fill="#e8542a"/>
  <rect x="16" y="40" width="8" height="8" fill="#e8542a"/>
  <rect x="24" y="40" width="16" height="8" fill="#2f7d34"/>
  <rect x="40" y="40" width="8" height="8" fill="#e8542a"/>
  <rect x="24" y="48" width="16" height="8" fill="#2f7d34"/>
  <rect x="16" y="56" width="8" height="8" fill="#2f7d34"/>
  <rect x="40" y="56" width="8" height="8" fill="#2f7d34"/>
</svg>
