<svg xmlns="http://www.w3.org/2000/svg" viewBox="0 0 64 64" width="64" height="64">
  <!-- stoneblock — posts, and the caps a crawler turns at. -->
  <rect x="0" y="0" width="64" height="8" fill="#cfd4dc"/>
  <rect x="0" y="8" width="8" height="8" fill="#cfd4dc"/>
  <rect x="8" y="8" width="48" height="8" fill="#7a828f"/>
  <rect x="56" y="8" width="8" height="8" fill="#cfd4dc"/>
  <rect x="0" y="16" width="8" height="8" fill="#cfd4dc"/>
  <rect x="8" y="16" width="8" height="8" fill="#7a828f"/>
  <rect x="16" y="16" width="32" height="8" fill="#9aa3b1"/>
  <rect x="48" y="16" width="8" height="8" fill="#7a828f"/>
  <rect x="56" y="16" width="8" height="8" fill="#cfd4dc"/>
  <rect x="0" y="24" width="8" height="8" fill="#cfd4dc"/>
  <rect x="8" y="24" width="8" height="8" fill="#7a828f"/>
  <rect x="16" y="24" width="32" height="8" fill="#9aa3b1"/>
  <rect x="48" y="24" width="8" height="8" fill="#7a828f"/>
  <rect x="56" y="24" width="8" height="8" fill="#cfd4dc"/>
  <rect x="0" y="32" width="8" height="8" fill="#cfd4dc"/>
  <rect x="8" y="32" width="8" height="8" fill="#7a828f"/>
  <rect x="16" y="32" width="32" height="8" fill="#9aa3b1"/>
  <rect x="48" y="32" width="8" height="8" fill="#7a828f"/>
  <rect x="56" y="32" width="8" height="8" fill="#cfd4dc"/>
  <rect x="0" y="40" width="8" height="8" fill="#cfd4dc"/>
  <rect x="8" y="40" width="8" height="8" fill="#7a828f"/>
  <rect x="16" y="40" width="32" height="8" fill="#9aa3b1"/>
  <rect x="48" y="40" width="8" height="8" fill="#7a828f"/>
  <rect x="56" y="40" width="8" height="8" fill="#cfd4dc"/>
  <rect x="0" y="48" width="8" height="8" fill="#cfd4dc"/>
  <rect x="8" y="48" width="48" height="8" fill="#7a828f"/>
  <rect x="56" y="48" width="8" height="8" fill="#cfd4dc"/>
  <rect x="0" y="56" width="64" height="8" fill="#3b4048"/>
</svg>
